<?xml version="1.0" encoding="UTF-8" standalone="no"?>
<!-- Created with Inkscape (http://www.inkscape.org/) -->

<svg
   xmlns:dc="http://purl.org/dc/elements/1.1/"
   xmlns:cc="http://creativecommons.org/ns#"
   xmlns:rdf="http://www.w3.org/1999/02/22-rdf-syntax-ns#"
   xmlns:svg="http://www.w3.org/2000/svg"
   xmlns="http://www.w3.org/2000/svg"
   xmlns:xlink="http://www.w3.org/1999/xlink"
   xmlns:sodipodi="http://sodipodi.sourceforge.net/DTD/sodipodi-0.dtd"
   xmlns:inkscape="http://www.inkscape.org/namespaces/inkscape"
   width="700"
   height="480"
   id="svg6356"
   version="1.1"
   inkscape:version="0.48.2 r9819"
   sodipodi:docname="hypermedia.svg">
  <sodipodi:namedview
     id="base"
     pagecolor="#ffffff"
     bordercolor="#666666"
     borderopacity="1.0"
     inkscape:pageopacity="0.0"
     inkscape:pageshadow="2"
     inkscape:zoom="1.095627"
     inkscape:cx="271.61391"
     inkscape:cy="234.57025"
     inkscape:current-layer="layer1"
     inkscape:document-units="px"
     showgrid="false"
     inkscape:window-width="1920"
     inkscape:window-height="1170"
     inkscape:window-x="0"
     inkscape:window-y="0"
     inkscape:window-maximized="1" />
  <defs
     id="defs6358">
    <marker
       inkscape:stockid="Arrow2Mend"
       orient="auto"
       refY="0"
       refX="0"
       id="Arrow2Mend"
       style="overflow:visible">
      <path
         id="path3870"
         style="font-size:12px;fill-rule:evenodd;stroke-width:0.625;stroke-linejoin:round"
         d="M 8.7185878,4.0337352 -2.2072895,0.01601326 8.7185884,-4.0017078 c -1.7454984,2.3720609 -1.7354408,5.6174519 -6e-7,8.035443 z"
         transform="scale(-0.6,-0.6)"
         inkscape:connector-curvature="0" />
    </marker>
    <linearGradient
       id="linearGradient9783">
      <stop
         id="stop9791"
         offset="0"
         style="stop-color:#ff0000;stop-opacity:0.49803922;" />
      <stop
         style="stop-color:#7f3f00;stop-opacity:0.37254902;"
         offset="0.30912185"
         id="stop9795" />
      <stop
         style="stop-color:#007f00;stop-opacity:0.24705882;"
         offset="0.57486814"
         id="stop9793" />
      <stop
         style="stop-color:#00ff00;stop-opacity:0;"
         offset="1"
         id="stop9787" />
    </linearGradient>
    <marker
       inkscape:stockid="Arrow2Lend"
       orient="auto"
       refY="0"
       refX="0"
       id="Arrow2Lend"
       style="overflow:visible">
      <path
         id="path3864"
         style="font-size:12px;fill-rule:evenodd;stroke-width:0.625;stroke-linejoin:round"
         d="M 8.7185878,4.0337352 -2.2072895,0.01601326 8.7185884,-4.0017078 c -1.7454984,2.3720609 -1.7354408,5.6174519 -6e-7,8.035443 z"
         transform="matrix(-1.1,0,0,-1.1,-1.1,0)"
         inkscape:connector-curvature="0" />
    </marker>
    <marker
       inkscape:stockid="Arrow1Sstart"
       orient="auto"
       refY="0"
       refX="0"
       id="Arrow1Sstart"
       style="overflow:visible">
      <path
         id="path3855"
         d="M 0,0 5,-5 -12.5,0 5,5 0,0 z"
         style="fill-rule:evenodd;stroke:#000000;stroke-width:1pt;marker-start:none"
         transform="matrix(0.2,0,0,0.2,1.2,0)"
         inkscape:connector-curvature="0" />
    </marker>
    <marker
       inkscape:stockid="Arrow2Send"
       orient="auto"
       refY="0"
       refX="0"
       id="Arrow2Send"
       style="overflow:visible">
      <path
         id="path3876"
         style="font-size:12px;fill-rule:evenodd;stroke-width:0.625;stroke-linejoin:round"
         d="M 8.7185878,4.0337352 -2.2072895,0.01601326 8.7185884,-4.0017078 c -1.7454984,2.3720609 -1.7354408,5.6174519 -6e-7,8.035443 z"
         transform="matrix(-0.3,0,0,-0.3,0.69,0)"
         inkscape:connector-curvature="0" />
    </marker>
    <marker
       inkscape:stockid="Arrow2Sstart"
       orient="auto"
       refY="0"
       refX="0"
       id="Arrow2Sstart"
       style="overflow:visible">
      <path
         id="path3873"
         style="font-size:12px;fill-rule:evenodd;stroke-width:0.625;stroke-linejoin:round"
         d="M 8.7185878,4.0337352 -2.2072895,0.01601326 8.7185884,-4.0017078 c -1.7454984,2.3720609 -1.7354408,5.6174519 -6e-7,8.035443 z"
         transform="matrix(0.3,0,0,0.3,-0.69,0)"
         inkscape:connector-curvature="0" />
    </marker>
    <marker
       inkscape:stockid="Arrow1Lstart"
       orient="auto"
       refY="0"
       refX="0"
       id="Arrow1Lstart"
       style="overflow:visible">
      <path
         id="path3843"
         d="M 0,0 5,-5 -12.5,0 5,5 0,0 z"
         style="fill-rule:evenodd;stroke:#000000;stroke-width:1pt;marker-start:none"
         transform="matrix(0.8,0,0,0.8,10,0)"
         inkscape:connector-curvature="0" />
    </marker>
    <marker
       inkscape:stockid="Arrow2Sstart"
       orient="auto"
       refY="0"
       refX="0"
       id="Arrow2Sstart-0"
       style="overflow:visible">
      <path
         inkscape:connector-curvature="0"
         id="path3873-5"
         style="font-size:12px;fill-rule:evenodd;stroke-width:0.625;stroke-linejoin:round"
         d="M 8.7185878,4.0337352 -2.2072895,0.01601326 8.7185884,-4.0017078 c -1.7454984,2.3720609 -1.7354408,5.6174519 -6e-7,8.035443 z"
         transform="matrix(0.3,0,0,0.3,-0.69,0)" />
    </marker>
    <linearGradient
       inkscape:collect="always"
       xlink:href="#linearGradient9783"
       id="linearGradient9789"
       x1="120.87145"
       y1="360.0022"
       x2="132.12146"
       y2="206.39937"
       gradientUnits="userSpaceOnUse" />
    <marker
       inkscape:stockid="Arrow2SendU"
       orient="auto"
       refY="0"
       refX="0"
       id="Arrow2SendU"
       style="overflow:visible">
      <path
         id="path10267"
         style="font-size:12px;fill:url(#linearGradient9789);fill-rule:evenodd;stroke:url(#linearGradient9789);stroke-width:0.625;stroke-linejoin:round"
         d="M 8.7185878,4.0337352 -2.2072895,0.01601326 8.7185884,-4.0017078 c -1.7454984,2.3720609 -1.7354408,5.6174519 -6e-7,8.035443 z"
         transform="matrix(-0.3,0,0,-0.3,0.69,0)"
         inkscape:connector-curvature="0" />
    </marker>
    <marker
       inkscape:stockid="Arrow2SendA"
       orient="auto"
       refY="0"
       refX="0"
       id="Arrow2SendA"
       style="overflow:visible">
      <path
         id="path10797"
         style="font-size:12px;fill:url(#linearGradient9789);fill-rule:evenodd;stroke:url(#linearGradient9789);stroke-width:0.625;stroke-linejoin:round"
         d="M 8.7185878,4.0337352 -2.2072895,0.01601326 8.7185884,-4.0017078 c -1.7454984,2.3720609 -1.7354408,5.6174519 -6e-7,8.035443 z"
         transform="matrix(-0.3,0,0,-0.3,0.69,0)"
         inkscape:connector-curvature="0" />
    </marker>
    <marker
       inkscape:stockid="Arrow2SendAA"
       orient="auto"
       refY="0"
       refX="0"
       id="Arrow2SendAA"
       style="overflow:visible">
      <path
         id="path10938"
         style="font-size:12px;fill:url(#linearGradient9789);fill-rule:evenodd;stroke:url(#linearGradient9789);stroke-width:0.625;stroke-linejoin:round"
         d="M 8.7185878,4.0337352 -2.2072895,0.01601326 8.7185884,-4.0017078 c -1.7454984,2.3720609 -1.7354408,5.6174519 -6e-7,8.035443 z"
         transform="matrix(-0.3,0,0,-0.3,0.69,0)"
         inkscape:connector-curvature="0" />
    </marker>
    <marker
       inkscape:stockid="Arrow2Sstart3"
       orient="auto"
       refY="0"
       refX="0"
       id="Arrow2Sstart3"
       style="overflow:visible">
      <path
         id="path10941"
         style="font-size:12px;fill:#ff0000;fill-rule:evenodd;stroke:#ff0000;stroke-width:0.625;stroke-linejoin:round"
         d="M 8.7185878,4.0337352 -2.2072895,0.01601326 8.7185884,-4.0017078 c -1.7454984,2.3720609 -1.7354408,5.6174519 -6e-7,8.035443 z"
         transform="matrix(0.3,0,0,0.3,-0.69,0)"
         inkscape:connector-curvature="0" />
    </marker>
    <marker
       inkscape:stockid="Arrow2SstartR"
       orient="auto"
       refY="0"
       refX="0"
       id="Arrow2SstartR"
       style="overflow:visible">
      <path
         id="path10944"
         style="font-size:12px;fill:#008000;fill-rule:evenodd;stroke:#008000;stroke-width:0.625;stroke-linejoin:round"
         d="M 8.7185878,4.0337352 -2.2072895,0.01601326 8.7185884,-4.0017078 c -1.7454984,2.3720609 -1.7354408,5.6174519 -6e-7,8.035443 z"
         transform="matrix(0.3,0,0,0.3,-0.69,0)"
         inkscape:connector-curvature="0" />
    </marker>
    <marker
       inkscape:stockid="Arrow2Sends"
       orient="auto"
       refY="0"
       refX="0"
       id="Arrow2Sends"
       style="overflow:visible">
      <path
         id="path13366"
         style="font-size:12px;fill:#808080;fill-rule:evenodd;stroke:#808080;stroke-width:0.625;stroke-linejoin:round"
         d="M 8.7185878,4.0337352 -2.2072895,0.01601326 8.7185884,-4.0017078 c -1.7454984,2.3720609 -1.7354408,5.6174519 -6e-7,8.035443 z"
         transform="matrix(-0.3,0,0,-0.3,0.69,0)"
         inkscape:connector-curvature="0" />
    </marker>
  </defs>
  <metadata
     id="metadata6361">
    <rdf:RDF>
      <cc:Work
         rdf:about="">
        <dc:format>image/svg+xml</dc:format>
        <dc:type
           rdf:resource="http://purl.org/dc/dcmitype/StillImage" />
        <dc:title />
      </cc:Work>
    </rdf:RDF>
  </metadata>
  <g
     id="layer1"
     inkscape:label="Layer 1"
     inkscape:groupmode="layer">
    <g
       id="g6460"
       transform="matrix(1.5188273,0,0,1.5188273,638.48765,8.9137172)">
      <g
         id="background-99">
        <rect
           id="rect6451"
           height="32"
           width="32"
           x="0"
           y="0"
           style="fill:none" />
      </g>
      <g
         id="server">
        <path
           id="path6454"
           d="M 30,10 V 2 H 2 v 8 h 2 v 2 H 2 v 8 h 2 v 2 H 2 v 8 h 28 v -8 h -2 v -2 h 2 v -8 h -2 v -2 h 2 z M 4,6 H 8 V 8 H 4 V 6 z m 0,10 h 4 v 2 H 4 V 16 z M 8,28 H 4 v -2 h 4 v 2 z M 26,22 H 6 v -2 h 20 v 2 z M 26,12 H 6 v -2 h 20 v 2 z"
           inkscape:connector-curvature="0" />
      </g>
    </g>
    <g
       id="g6481"
       transform="matrix(1.5188273,0,0,1.5188273,374.02562,9.5525782)">
      <g
         id="background-1">
        <rect
           id="rect6470"
           height="32"
           width="32"
           x="0"
           y="0"
           style="fill:none" />
      </g>
      <g
         id="computer">
        <polygon
           id="polygon6473"
           points="28,22 32,30 0,30 4,22 " />
        <path
           id="path6475"
           d="M 4,2 V 20 H 28 V 2 H 4 z M 26,18 H 6 V 4 h 20 v 14 z"
           inkscape:connector-curvature="0" />
      </g>
    </g>
    <path
       style="fill:#666666;stroke:#6e6e6e;stroke-width:8;stroke-linecap:butt;stroke-linejoin:miter;stroke-miterlimit:4;stroke-opacity:1;stroke-dasharray:none"
       d="m 399.70353,70.73096 0,393.9432"
       id="path6488"
       inkscape:connector-curvature="0" />
    <path
       style="fill:#666666;stroke:#6e6e6e;stroke-width:8;stroke-linecap:butt;stroke-linejoin:miter;stroke-miterlimit:4;stroke-opacity:1;stroke-dasharray:none"
       d="m 665.60424,76.215841 0,389.426919"
       id="path6488-5"
       inkscape:connector-curvature="0" />
    <path
       style="fill:none;stroke:#000000;stroke-width:5;stroke-linecap:butt;stroke-linejoin:miter;stroke-miterlimit:4;stroke-opacity:1;stroke-dasharray:none;marker-end:url(#Arrow2Send)"
       d="m 419.06523,108.16359 229.75887,25.8156"
       id="path7016"
       inkscape:connector-curvature="0" />
    <path
       style="fill:none;stroke:#000000;stroke-width:5;stroke-linecap:butt;stroke-linejoin:miter;stroke-miterlimit:4;stroke-opacity:1;stroke-dasharray:none;marker-start:none;marker-end:url(#Arrow2Send)"
       d="m 421.64679,345.24161 229.75887,25.8156"
       id="path7016-3"
       inkscape:connector-curvature="0"
       inkscape:transform-center-x="74.865249"
       inkscape:transform-center-y="-154.89362" />
    <path
       style="fill:none;stroke:#000000;stroke-width:5;stroke-linecap:butt;stroke-linejoin:miter;stroke-miterlimit:4;stroke-opacity:1;stroke-dasharray:none;marker-start:url(#Arrow2Sstart)"
       d="m 420.35601,434.56076 229.75887,-25.8156"
       id="path7016-0"
       inkscape:connector-curvature="0" />
    <path
       style="fill:none;stroke:#000000;stroke-width:5;stroke-linecap:butt;stroke-linejoin:miter;stroke-miterlimit:4;stroke-opacity:1;stroke-dasharray:none;marker-start:url(#Arrow2Sstart)"
       d="m 422.93757,201.48274 229.75887,-25.8156"
       id="path7016-3-2"
       inkscape:connector-curvature="0"
       inkscape:transform-center-x="74.865249"
       inkscape:transform-center-y="154.89362" />
    <text
       xml:space="preserve"
       style="font-size:16px;font-style:normal;font-variant:normal;font-weight:bold;font-stretch:normal;line-height:125%;letter-spacing:0px;word-spacing:0px;fill:#000000;fill-opacity:1;stroke:none;font-family:Courier New;-inkscape-font-specification:Courier New Bold"
       x="490.05814"
       y="108.29124"
       id="text7057"
       sodipodi:linespacing="125%"><tspan
         sodipodi:role="line"
         id="tspan7059"
         x="490.05814"
         y="108.29124">GET /users</tspan></text>
    <text
       xml:space="preserve"
       style="font-size:16px;font-style:normal;font-variant:normal;font-weight:bold;font-stretch:normal;line-height:125%;letter-spacing:0px;word-spacing:0px;fill:#000000;fill-opacity:1;stroke:none;font-family:Courier New;-inkscape-font-specification:Courier New Bold"
       x="489.71176"
       y="345.35773"
       id="text7057-8"
       sodipodi:linespacing="125%"><tspan
         sodipodi:role="line"
         id="tspan7059-6"
         x="489.71176"
         y="345.35773">GET <tspan
   style="fill:#a32638"
   id="tspan13664">/user/23</tspan></tspan></text>
    <text
       xml:space="preserve"
       style="font-size:16px;font-style:normal;font-variant:normal;font-weight:bold;font-stretch:normal;line-height:125%;letter-spacing:0px;word-spacing:0px;fill:#000000;fill-opacity:1;stroke:none;font-family:Courier New;-inkscape-font-specification:Courier New Bold"
       x="507.16724"
       y="180.09209"
       id="text7082"
       sodipodi:linespacing="125%"><tspan
         sodipodi:role="line"
         id="tspan7084"
         x="507.16724"
         y="180.09209">200 OK</tspan></text>
    <text
       xml:space="preserve"
       style="font-size:16px;font-style:normal;font-variant:normal;font-weight:bold;font-stretch:normal;line-height:125%;letter-spacing:0px;word-spacing:0px;fill:#000000;fill-opacity:1;stroke:none;font-family:Courier New;-inkscape-font-specification:Courier New Bold"
       x="508.91885"
       y="414.73801"
       id="text7082-4"
       sodipodi:linespacing="125%"><tspan
         sodipodi:role="line"
         id="tspan7084-9"
         x="508.91885"
         y="414.73801">200 OK</tspan></text>
    <g
       id="g13560"
       transform="translate(526.98013,133.59622)">
      <g
         id="background">
        <rect
           id="rect13545"
           height="32"
           width="32"
           x="0"
           y="0"
           style="fill:none" />
      </g>
      <g
         id="document_x5F_text">
        <polygon
           id="polygon13548"
           points="4,22 4,20 16,20 16,22 4,22 " />
        <polygon
           id="polygon13550"
           points="4,14 4,12 20,12 20,14 4,14 " />
        <polygon
           id="polygon13552"
           points="4,18 4,16 20,16 20,18 4,18 " />
        <path
           id="path13554"
           d="M 18.414,0 H 0 V 32 H 24 V 5.584 L 18.414,0 z M 17.998,2.413 21.586,6 H 17.998 V 2.413 z M 2,30 V 1.998 h 14 v 6.001 h 6 V 30 H 2 z"
           inkscape:connector-curvature="0" />
      </g>
    </g>
    <g
       id="g13610"
       transform="translate(483.02267,114.20614)">
      <g
         transform="translate(42.085107,253.60284)"
         id="g13582">
        <g
           id="background-4">
          <rect
             style="fill:none"
             y="0"
             x="0"
             width="32"
             height="32"
             id="rect13573" />
        </g>
        <g
           id="document">
          <path
             inkscape:connector-curvature="0"
             d="M 18.414,0 H 0 V 32 H 24 V 5.584 L 18.414,0 z M 17.998,2.413 21.586,6 H 17.998 V 2.413 z M 2,30 V 1.998 h 14 v 6.001 h 6 V 30 H 2 z"
             id="path13576" />
        </g>
      </g>
      <g
         transform="matrix(0.58654698,0,0,0.58654698,45.070036,262.55763)"
         id="g13603">
        <g
           id="background-0">
          <rect
             style="fill:none"
             y="0"
             x="0"
             width="32"
             height="32"
             id="rect13592" />
        </g>
        <g
           id="user_x5F_full">
          <g
             id="g13595">
            <path
               inkscape:connector-curvature="0"
               d="m 20,8 c -0.571,0 -8,0 -8,0 0,0 -2,0 -2,2 v 8 c 0,2.285 2,2 2,2 v 12 h 8 V 20 c 0,0 2,0.285 2,-2 0,-2.286 0,-8 0,-8 0,0 0,-2 -2,-2 z M 16,6 c 1.657,0 3,-1.343 3,-3 0,-1.657 -1.343,-3 -3,-3 -1.657,0 -3,1.343 -3,3 0,1.657 1.343,3 3,3 z"
               id="path13597" />
          </g>
        </g>
      </g>
    </g>
    <text
       xml:space="preserve"
       style="font-size:16px;font-style:normal;font-variant:normal;font-weight:normal;font-stretch:normal;line-height:125%;letter-spacing:0px;word-spacing:0px;fill:#000000;fill-opacity:1;stroke:none;font-family:Arial;-inkscape-font-specification:Arial"
       x="34.683338"
       y="86.094261"
       id="text13623"
       sodipodi:linespacing="125%"><tspan
         sodipodi:role="line"
         id="tspan13625"
         x="34.683338"
         y="86.094261"
         style="font-size:16px;font-style:normal;font-variant:normal;font-weight:bold;font-stretch:normal;font-family:Courier New;-inkscape-font-specification:Courier New Bold">/users</tspan><tspan
         sodipodi:role="line"
         x="34.683338"
         y="106.09426"
         style="font-size:16px;font-style:normal;font-variant:normal;font-weight:bold;font-stretch:normal;font-family:Courier New;-inkscape-font-specification:Courier New Bold"
         id="tspan3081" /><tspan
         sodipodi:role="line"
         x="34.683338"
         y="126.09426"
         style="font-size:16px;font-style:normal;font-variant:normal;font-weight:bold;font-stretch:normal;font-family:Courier New;-inkscape-font-specification:Courier New Bold"
         id="tspan3135">...</tspan><tspan
         sodipodi:role="line"
         x="34.683338"
         y="146.09427"
         style="font-size:16px;font-style:normal;font-variant:normal;font-weight:normal;font-stretch:normal;font-family:Courier New;-inkscape-font-specification:Courier New"
         id="tspan3085">&lt;a rel=&quot;alternate&quot; </tspan><tspan
         sodipodi:role="line"
         x="34.683338"
         y="166.09427"
         style="font-size:16px;font-style:normal;font-variant:normal;font-weight:normal;font-stretch:normal;font-family:Courier New;-inkscape-font-specification:Courier New"
         id="tspan3139"><tspan
   style="font-weight:bold;-inkscape-font-specification:Courier New Bold"
   id="tspan3150">   href=&quot;</tspan><tspan
   style="font-weight:bold;fill:#a32638;-inkscape-font-specification:Courier New Bold"
   id="tspan3087">/user/23/</tspan><tspan
   style="font-weight:bold;-inkscape-font-specification:Courier New Bold"
   id="tspan3152">&quot;</tspan>&gt;User Foo&lt;/a&gt;</tspan><tspan
         sodipodi:role="line"
         x="34.683338"
         y="186.09427"
         id="tspan13652"
         style="font-size:16px;font-style:normal;font-variant:normal;font-weight:normal;font-stretch:normal;font-family:Courier New;-inkscape-font-specification:Courier New">...</tspan><tspan
         sodipodi:role="line"
         x="34.683338"
         y="206.09427"
         id="tspan13658"
         style="font-size:16px;font-style:normal;font-variant:normal;font-weight:normal;font-stretch:normal;font-family:Courier New;-inkscape-font-specification:Courier New" /></text>
    <text
       xml:space="preserve"
       style="font-size:16px;font-style:normal;font-variant:normal;font-weight:normal;font-stretch:normal;line-height:125%;letter-spacing:0px;word-spacing:0px;fill:#000000;fill-opacity:1;stroke:none;font-family:Arial;-inkscape-font-specification:Arial"
       x="34.52803"
       y="330.32913"
       id="text13623-4"
       sodipodi:linespacing="125%"><tspan
         sodipodi:role="line"
         id="tspan13625-8"
         x="34.52803"
         y="330.32913"
         style="font-size:16px;font-style:normal;font-variant:normal;font-weight:bold;font-stretch:normal;font-family:Courier New;-inkscape-font-specification:Courier New Bold">/user/23</tspan><tspan
         sodipodi:role="line"
         x="34.52803"
         y="350.32913"
         id="tspan13658-8"
         style="font-size:16px;font-style:normal;font-variant:normal;font-weight:normal;font-stretch:normal;font-family:Courier New;-inkscape-font-specification:Courier New" /><tspan
         sodipodi:role="line"
         x="34.52803"
         y="370.32913"
         style="font-size:16px;font-style:normal;font-variant:normal;font-weight:normal;font-stretch:normal;font-family:Courier New;-inkscape-font-specification:Courier New"
         id="tspan3181">...</tspan><tspan
         sodipodi:role="line"
         x="34.52803"
         y="390.32913"
         style="font-size:16px;font-style:normal;font-variant:normal;font-weight:normal;font-stretch:normal;font-family:Courier New;-inkscape-font-specification:Courier New"
         id="tspan3183">User Foo</tspan><tspan
         sodipodi:role="line"
         x="34.52803"
         y="410.32913"
         style="font-size:16px;font-style:normal;font-variant:normal;font-weight:normal;font-stretch:normal;font-family:Courier New;-inkscape-font-specification:Courier New"
         id="tspan3185">Details</tspan><tspan
         sodipodi:role="line"
         x="34.52803"
         y="430.32913"
         style="font-size:16px;font-style:normal;font-variant:normal;font-weight:normal;font-stretch:normal;font-family:Courier New;-inkscape-font-specification:Courier New"
         id="tspan3187">...</tspan></text>
  </g>
</svg>
